#!OML:ASF E:/inclinewalkrobotboard/Project1/Captureday1/Session1/subject1.ASF
:FULLY-SPECIFIED
:DEGREES
101
root 0 0 0 -0.509585754694219 -3.0167922041902235 -0.1954430412910565
lowerback 11.216102550493849 0.6352627350640409 0.39974540964626426
upperback -1.939990097809996 0.9283298042653715 0.49765874012219724
thorax -8.37277458553095 0.432164351052564 0.10990074491494556
lowerneck -11.417875689527559 -0.6325310084218814 1.3465741868936802
upperneck 18.860010598652863 -0.2545031630664971 -3.8973168769937505
head 7.824286106433192 -0.3162598797578048 -1.569152240215133
rclavicle -5.483637467609678E-16 -6.198417471344037E-16
rhumerus -0.5203583831378005 0.9125039790928486 -60.20964504871935
rradius 53.34349808221026
rwrist 17.45498832606357
rhand -27.243355652391735 -23.440692293036122
rfingers 7.125019999999925
rthumb -0.8366143171644067 -53.57736954722327
lclavicle -4.900434047756586E-16 -6.929252903952872E-16
lhumerus -1.294521780719153 -6.925065947052085 60.48747482921351
lradius 52.637955515086865
lwrist -11.132634223863846
lhand -37.27008611008126 -31.220455846709804
lfingers 7.12501999999992
lthumb -10.372669956938758 -1.666935248527679
rfemur -21.381424269475726 -0.34029470561531205 19.546086950867952
rtibia 50.61197013579485
rfoot -22.766069809164648 -13.851816378147959
rtoes -12.223577108808122
lfemur -23.133323986430163 1.548611292749017 -18.141498264101482
ltibia 50.130896790850834
lfoot -25.96373842561573 -3.6534652032767023
ltoes -16.72440516343881
102
root 0 0 0 -0.509301286902834 -3.0168769691864448 -0.1951323654352627
lowerback 11.21621212565203 0.635307508321998 0.3996699328040196
upperback -1.9403625660671793 0.9283581216088447 0.4974848945616257
thorax -8.373228987014693 0.43217707291341756 0.10975138462144318
lowerneck -11.417079341734196 -0.6322036620105137 1.3470509832859774
upperneck 18.85994662568944 -0.25400069121384417 -3.897957571793519
head 7.82413300295971 -0.31603746186649173 -1.5693922041115496
rclavicle -5.483296256074857E-16 -6.197564329269685E-16
rhumerus -0.5274319517145614 0.9078533023358482 -60.21389514708005
rradius 53.33703692909408
rwrist 17.45171681406722
rhand -27.240985763850738 -23.429374835858376
rfingers 7.125019999999925
rthumb -0.8343977817790442 -53.56612083657135
lclavicle -4.901766986419075E-16 -6.928807829188029E-16
lhumerus -1.302609316842208 -6.923133683529067 60.49317168671164
lradius 52.63173556777951
lwrist -11.12841334574411
lhand -37.267387515023835 -31.20635551063237
lfingers 7.12501999999992
lthumb -10.370091522946193 -1.6527047109133264
rfemur -21.383348575633974 -0.3414659291597393 19.544519695731687
rtibia 50.614520061161095
rfoot -22.769524397285668 -13.853501547696325
rtoes -12.227242616070065
lfemur -23.130268992390945 1.5478636347486172 -18.141816084009566
ltibia 50.12711522250807
lfoot -25.959450560962182 -3.6532647106834943
ltoes -16.721575348471255
103
root 0 0 0 -0.5091127258511482 -3.016919921584323 -0.1949068106746824
lowerback 11.216284038256852 0.635329352430149 0.3996015314552469
upperback -1.9406111245135007 0.9283650880850088 0.49736955423832313
thorax -8.373535422031127 0.43218375146273263 0.10966361306229028
lowerneck -11.416549436099627 -0.6319738828548266 1.3473786496661595
upperneck 18.859899155932645 -0.2536589351335383 -3.8983836575949553
head 7.824027551113361 -0.31589081994721946 -1.5695555301578845
rclavicle -5.483646401581052E-16 -6.196978911010175E-16
rhumerus -0.5319547070698398 0.9048768916947942 -60.21660503311688
rradius 53.33288785375859
rwrist 17.449625248325063
rhand -27.2394727316305 -23.42215328521489
rfingers 7.125019999999924
rthumb -0.8329791645021647 -53.55895775343522
lclavicle -4.902218823363482E-16 -6.928514372077479E-16
lhumerus -1.3067813342248957 -6.922132388381552 60.496115625505865
lradius 52.62850133715001
lwrist -11.12623411685543
lhand -37.26598998912039 -31.199026942147846
lfingers 7.12501999999992
lthumb -10.36875380977007 -1.6453291060320794
rfemur -21.385858762138252 -0.3430053271521847 19.542462189833607
rtibia 50.61788172221385
rfoot -22.77406343255609 -13.855707272803038
rtoes -12.232035827181395
lfemur -23.12671840813703 1.546993665534169 -18.14218318499127
ltibia 50.122745288738834
lfoot -25.954441941640937 -3.653065909949178
ltoes -16.718298282000827
104
root 0 0 0 -0.512121991977971 -3.0159523242060025 -0.1978627074656918
lowerback 11.21516259761862 0.6348341930527152 0.40021077360865803
upperback -1.9367953831199045 0.9279333524550794 0.499096458513286
thorax -8.368686484551326 0.43204052504182555 0.11120572575770271
lowerneck -11.424669742716441 -0.6353832043216187 1.3423646074497055
upperneck 18.860450165008164 -0.2587564271573348 -3.891768323197071
head 7.825529317281138 -0.318121003041807 -1.567052131212927
rclavicle -5.486380713271849E-16 -6.203504531270652E-16
rhumerus -0.522684441922852 0.9112637903606444 -60.210106301769684
rradius 53.34197998210471
rwrist 17.45455102039633
rhand -27.243007337388235 -23.438819534276313
rfingers 7.125019999999925
rthumb -0.8365712586368232 -53.57637758758435
lclavicle -4.900716677963641E-16 -6.936983746768257E-16
lhumerus -1.285411774226466 -6.927409179067278 60.48106836098754
lradius 52.64727849059864
lwrist -11.137723039385342
lhand -37.273830252544414 -31.236293279705123
lfingers 7.12501999999992
lthumb -10.375886492779937 -1.6849123552025453
rfemur -21.380774305288902 -0.3397434513103712 19.546710512096325
rtibia 50.6105884186312
rfoot -22.764484893763946 -13.850709623197297
rtoes -12.221507832232291
lfemur -23.118638466241453 1.545079204267144 -18.143241546538437
ltibia 50.11335488601599
lfoot -25.942905666089025 -3.652840348023519
ltoes -16.711494326667058
105
root 0 0 0 -0.5101911310711863 -3.0165467742355063 -0.19598841739722406
lowerback 11.21586497139689 0.6351326883986892 0.3998144293893373
upperback -1.9392078556533603 0.9282139001482228 0.4980207332973846
thorax -8.371781635843908 0.43213020262938795 0.11026058363811742
lowerneck -11.419547747171652 -0.63319564777251 1.3455608082173647
upperneck 18.8601287079528 -0.2555441283865325 -3.8959597495759795
head 7.824599416328519 -0.3167238789057992 -1.568651577749665
rclavicle -5.48328686434316E-16 -6.199183527844981E-16
rhumerus -0.5205243981389245 0.9124094288985898 -60.2096878537202
rradius 53.34340293670146
rwrist 17.454988711898306
rhand -27.24334249546844 -23.440490898372055
rfingers 7.125019999999925
rthumb -0.8366197080304643 -53.577127841592755
lclavicle -4.899256774207061E-16 -6.930083954877925E-16
lhumerus -1.286840902330491 -6.926947572515642 60.482092332176634
lradius 52.643962090298906
lwrist -11.136625612958412
lhand -37.272673510612215 -31.23395795669255
lfingers 7.12501999999992
lthumb -10.375121576862618 -1.680381844938541
rfemur -21.38183638913269 -0.34043254595949035 19.54580297939872
rtibia 50.612120843106446
rfoot -22.766523731403918 -13.852072571995537
rtoes -12.224156454820726
lfemur -23.12889018728683 1.5475547612513585 -18.141944513332305
ltibia 50.1258828546968
lfoot -25.957641755334862 -3.6533271053480383
ltoes -16.720477051021323
106
root 0 0 0 -0.5095475620855364 -3.0167747689647513 -0.19536619317938575
lowerback 11.216116185810868 0.6352514781194097 0.3997046844583636
upperback -1.9400396472190058 0.9283112961492965 0.4976370892480918
thorax -8.372838736371902 0.43216210316792925 0.10990125245264376
lowerneck -11.417763648511755 -0.632467246165767 1.3466457059228563
upperneck 18.859995114275925 -0.25442323218234186 -3.897409887092312
head 7.824260705442256 -0.31622981238689696 -1.5691891672697404
rclavicle -5.483821150838505E-16 -6.19825858395085E-16
rhumerus -0.5217868059683415 0.9115559065681573 -60.21048895622635
rradius 53.34219798262387
rwrist 17.454344281165596
rhand -27.242883549604244 -23.43842623012072
rfingers 7.125019999999925
rthumb -0.836174810920089 -53.575143923571716
lclavicle -4.900160416263856E-16 -6.929334656149322E-16
lhumerus -1.293153990979155 -6.925401634097019 60.48652879904938
lradius 52.639012294224806
lwrist -11.133339683210718
lhand -37.270538742369226 -31.222830525229682
lfingers 7.12501999999992
lthumb -10.373103998062192 -1.6693168990009433
rfemur -21.38348224493907 -0.34153301527667024 19.544416885160786
rtibia 50.61465169280895
rfoot -22.76973705785173 -13.853602351022007
rtoes -12.227450523125405
lfemur -23.131376686356077 1.5481398200842096 -18.141711500060474
ltibia 50.12856104380178
lfoot -25.961033985406626 -3.6533713494525797
ltoes -16.722652811675236
107
root 0 0 0 -0.5093166092979187 -3.016839231581188 -0.19510818607329594
lowerback 11.21620485856325 0.6352854348900432 0.3996388424964398
upperback -1.9403415476684112 0.9283307177354687 0.4974958450174139
thorax -8.373205712471208 0.4321717948144701 0.10978288097168398
lowerneck -11.417115384872629 -0.6321997409695037 1.3470314801459424
upperneck 18.859941623132464 -0.2540139351136388 -3.897931107421445
head 7.824136098314305 -0.31604879387641105 -1.5693842903523547
rclavicle -5.483495603218878E-16 -6.197424724886066E-16
rhumerus -0.5287432624221946 0.9069802569308365 -60.21466614270848
rradius 53.33584514354691
rwrist 17.451131507598255
rhand -27.24055407341023 -23.427299875078873
rfingers 7.125019999999925
rthumb -0.8339972725625477 -53.56409034234714
lclavicle -4.901361939935883E-16 -6.928936754970073E-16
lhumerus -1.3003455832345594 -6.923687409176871 60.49160121427606
lradius 52.633487237055085
lwrist -11.12958284340332
lhand -37.26813837920152 -31.21029377101678
lfingers 7.12501999999992
lthumb -10.370811327573595 -1.6566605671678403
rfemur -21.385417257698528 -0.34270258941061504 19.542846882970085
rtibia 50.617190090205725
rfoot -22.773193109496727 -13.855290121196669
rtoes -12.231117860951834
lfemur -23.128529491854934 1.5474449266558388 -18.142010636613907
ltibia 50.12505317915924
lfoot -25.957051058924485 -3.653186236588391
ltoes -16.72002728378599
